<?xml version="1.0" encoding="UTF-8"?>
<!-- Generator: Adobe Illustrator 21.0.2, SVG Export Plug-In . SVG Version: 6.00 Build 0)  -->
<svg version="1.1" id="Layer_1" xmlns="http://www.w3.org/2000/svg" xmlns:xlink="http://www.w3.org/1999/xlink" x="0px" y="0px" viewBox="0 0 341 411" style="enable-background:new 0 0 341 411;" xml:space="preserve">
<style type="text/css">
	.st0{fill:#0076BE;}
	.st1{fill:#009ADA;}
	.st2{fill:#FFFFFF;}
</style>
<path class="st0" d="M169.8,56.2L6.5,171.9L6.3,172c-1.6,1.1-2.6,3-2.6,5v0v112.7v0.1c0,2,1,3.8,2.6,5l0.2,0.1l156.4,110.9  c2.9,2,6.9,0,6.9-3.6V56.2z"/>
<path class="st1" d="M169.8,354.1l163.3-115.7l0.2-0.1c1.6-1.1,2.6-3,2.6-5v0V120.5v-0.1c0-2-1-3.8-2.6-5l-0.2-0.1L176.7,4.5  c-2.9-2-6.9,0-6.9,3.6V354.1z"/>
<path class="st2" d="M148.4,243.4c-0.2,0-0.3,0-0.4-0.1c-0.1-0.1-0.1-0.2-0.1-0.4l0.9-4.2v0l-12.5-55.4c0-0.1,0-0.3,0.1-0.4  c0.1-0.1,0.2-0.2,0.4-0.3l14.7-2.6c0.2,0,0.4,0.1,0.5,0.3l5.1,27.3c0,0.1,0.1,0.1,0.2,0l6.3-25c0,0,0,0,0,0l-0.9-4  c0-0.1,0-0.3,0.1-0.4c0.1-0.1,0.2-0.2,0.4-0.3l13.9-2.5h0l0.8-0.1c0.2,0,0.4,0.1,0.5,0.3l5.2,27.3c0,0.1,0.1,0.1,0.1,0l6.3-25  c0,0,0,0,0,0l-0.9-4c0-0.1,0-0.3,0.1-0.4c0.1-0.1,0.2-0.2,0.4-0.3l14-2.5c0.1,0,0.3,0,0.4,0.1c0.1,0.1,0.1,0.3,0.1,0.4l-14.7,64.4  c0,0.1-0.1,0.5-0.5,0.6l-14,2.5c-0.2,0-0.3,0-0.4-0.1c-0.1-0.1-0.1-0.2-0.1-0.4l0.9-4.2c0,0,0,0,0,0l-5.3-21.2c0-0.1-0.2-0.1-0.2,0  l-6.7,27.5c0,0.1-0.1,0.5-0.5,0.6L148.4,243.4z"/>
<path class="st2" d="M105.8,201.1c-8.2,1.5-9.6,7.4-9.6,20.1c0,12.7,1.4,18.1,9.6,16.7c8.2-1.5,9.6-7.4,9.6-20.1  C115.5,205.1,114.1,199.7,105.8,201.1 M105.8,252.4c-21.9,3.9-24.9-12.2-24.9-28.5c0-7,0.5-16.1,4.2-23.4  c3.9-7.6,10.7-12.1,20.7-13.9c21.9-3.9,24.9,12.2,24.9,28.5c0,7-0.5,16.1-4.2,23.4C122.6,246.1,115.8,250.6,105.8,252.4"/>
<path class="st2" d="M212.8,232.1c-0.2,0-0.3,0-0.4-0.1c-0.1-0.1-0.1-0.2-0.1-0.4l0.9-4.2v-53.6l-0.9-3.9c0-0.1,0-0.3,0.1-0.4  c0.1-0.1,0.2-0.2,0.4-0.3l40.5-7.1c0.3,0,0.5,0.1,0.5,0.4V176c0,0.3-0.2,0.5-0.5,0.6l-25.3,4.5v8.6l22.9-4c0.3-0.1,0.5,0.1,0.5,0.4  v13.6c0,0.3-0.2,0.5-0.5,0.6l-22.9,4v10.5l25.3-4.5c0.3,0,0.5,0.1,0.5,0.4v13.5c0,0.3-0.2,0.5-0.5,0.6l-38.6,6.8v0L212.8,232.1z"/>
<path class="st2" d="M44.8,225.9l6.4-1.1c4.7-0.8,7-3.3,7-7.5c0-1.5,0-6.3-7-5l-6.4,1.1V225.9z M29.2,264.4c-0.2,0-0.3,0-0.4-0.1  c-0.1-0.1-0.1-0.2-0.1-0.4l0.9-4.3v-53.4l-0.9-4c0-0.1,0-0.3,0.1-0.4c0.1-0.1,0.2-0.2,0.4-0.3l21.8-3.9c8.9-1.6,15.3,0,19.1,4.7  c3.2,4,3.7,9.3,3.7,12.1c0,2.8-0.5,8.3-3.7,13.4c-3.8,6-10.2,9.9-19.1,11.4l-6.3,1.1v20.7c0,0.3-0.2,0.5-0.5,0.6L29.2,264.4z"/>
<path class="st2" d="M282.4,182l7.7-1.3c5.4-1,5.8-3.5,5.8-6.4c0-2.8-0.4-5.1-5.8-4.2l-7.7,1.3V182z M298.2,217  c-0.2,0-0.3,0-0.4-0.1c-0.1-0.1-0.1-0.2-0.1-0.4l0.5-2.5l-9.9-18.4l-5.9,1v22.7c0,0.3-0.2,0.5-0.5,0.6l-12.9,2.3v0l-2,0.3  c-0.2,0-0.3,0-0.4-0.1c-0.1-0.1-0.1-0.2-0.1-0.4l0.9-4.2v-53.5l-0.9-3.9c0-0.1,0-0.3,0.1-0.4c0.1-0.1,0.2-0.2,0.4-0.3l22-3.9  c15.3-2.7,22.4,2.3,22.4,15.8c0,8.4-2.2,13.7-7.4,17.8l-0.4,0.3l13.5,23.3c0.1,0.1,0.1,0.3,0,0.5c-0.1,0.2-0.3,0.3-0.4,0.3  l-16.6,2.9v0L298.2,217z"/>
</svg>